<?xml version="1.0" standalone="no"?>
<!DOCTYPE svg PUBLIC "-//W3C//DTD SVG 20010904//EN"
 "http://www.w3.org/TR/2001/REC-SVG-20010904/DTD/svg10.dtd">
<svg version="1.0" xmlns="http://www.w3.org/2000/svg"
 width="128.000000pt" height="128.000000pt" viewBox="0 0 128.000000 128.000000"
 preserveAspectRatio="xMidYMid meet">
<metadata>
Created by potrace 1.13, written by Peter Selinger 2001-2015
</metadata>
<g transform="translate(0.000000,128.000000) scale(0.100000,-0.100000)"
fill="#000000" stroke="none">
<path d="M32 908 c2 -17 62 -54 283 -175 154 -84 291 -157 305 -163 23 -10 56
6 325 153 238 129 301 168 303 185 3 16 -2 22 -15 22 -10 0 -147 -70 -303
-156 l-285 -155 -40 19 c-22 11 -152 81 -289 156 -137 75 -258 136 -268 136
-14 0 -19 -6 -16 -22z"/>
<path d="M37 713 c-24 -24 9 -46 291 -200 165 -90 304 -163 311 -163 7 0 147
73 312 163 218 118 299 167 299 180 0 10 -6 20 -14 23 -8 3 -142 -65 -299
-150 -157 -86 -290 -156 -297 -156 -7 0 -140 70 -296 155 -156 85 -287 155
-292 155 -5 0 -12 -3 -15 -7z"/>
</g>
</svg>
